<svg width="120" height="36" viewBox="0 0 120 36" fill="none" xmlns="http://www.w3.org/2000/svg">
<path fill-rule="evenodd" clip-rule="evenodd" d="M52.4684 19.1308C52.4684 18.3317 52.5922 17.5889 52.8398 16.9024C53.0874 16.2159 53.425 15.6363 53.8527 15.1636C54.2804 14.6909 54.7911 14.3209 55.3847 14.0536C55.9784 13.7863 56.6129 13.6527 57.2881 13.6527C58.4699 13.6527 59.4349 13.9664 60.1834 14.5938C60.9318 15.2213 61.4073 16.078 61.6099 17.1641H59.8457C59.6263 16.562 59.314 16.0977 58.9088 15.7713C58.5036 15.4449 57.9634 15.2818 57.2881 15.2818C56.3709 15.2818 55.6408 15.6405 55.0977 16.358C54.5547 17.0754 54.2832 17.9997 54.2832 19.1308C54.2832 20.2619 54.5533 21.1875 55.0935 21.9078C55.6337 22.6281 56.3653 22.9883 57.2881 22.9883C57.9634 22.9883 58.5036 22.8237 58.9088 22.4945C59.314 22.1653 59.6263 21.6968 59.8457 21.0891H61.6099C61.4073 22.1808 60.9304 23.0403 60.1791 23.6678C59.4279 24.2952 58.4642 24.6089 57.2881 24.6089C56.6129 24.6089 55.9784 24.4753 55.3847 24.208C54.7911 23.9407 54.2804 23.5707 53.8527 23.098C53.425 22.6253 53.0874 22.0457 52.8398 21.3592C52.5922 20.6727 52.4684 19.9299 52.4684 19.1308ZM63.2891 24.4401V13.2053H65.0195V24.4401H63.2891ZM66.6566 20.6164C66.6566 19.4628 66.9956 18.5034 67.6737 17.7381C68.3518 16.9727 69.2113 16.5901 70.2524 16.5901C71.3103 16.5901 72.1319 16.9348 72.7171 17.6241C73.3023 18.3134 73.595 19.2321 73.595 20.38V20.9962H68.3532C68.3757 21.6659 68.5656 22.1934 68.9229 22.5789C69.2803 22.9644 69.7375 23.1571 70.2946 23.1571C70.7166 23.1571 71.0711 23.0642 71.3581 22.8785C71.6451 22.6928 71.8364 22.4171 71.9321 22.0513H73.5274C73.3924 22.8335 73.0449 23.4553 72.485 23.9168C71.9251 24.3782 71.1949 24.6089 70.2946 24.6089C69.2198 24.6089 68.3447 24.2389 67.6695 23.4989C66.9942 22.759 66.6566 21.7981 66.6566 20.6164ZM68.4038 19.7385H71.8815C71.8702 19.2433 71.7267 18.8368 71.451 18.5188C71.1752 18.2009 70.7841 18.0419 70.2777 18.0419C69.7937 18.0419 69.3858 18.1882 69.0538 18.4808C68.7218 18.7735 68.5051 19.1927 68.4038 19.7385ZM74.7256 22.0682C74.7256 21.3479 75.0097 20.7571 75.5781 20.2956C76.1464 19.8342 76.8583 19.6035 77.7136 19.6035C78.0456 19.6035 78.3847 19.6513 78.7307 19.747C79.0768 19.8426 79.3315 19.9496 79.4946 20.0677V19.4431C79.4946 19.0379 79.368 18.7059 79.1148 18.4471C78.8616 18.1882 78.4986 18.0588 78.0259 18.0588C77.3507 18.0588 76.9117 18.3374 76.7092 18.8945H75.0463C75.1588 18.2304 75.4951 17.6804 76.055 17.2443C76.6149 16.8081 77.2831 16.5901 78.0597 16.5901C79.022 16.5901 79.7746 16.8405 80.3176 17.3413C80.8607 17.8422 81.1322 18.5315 81.1322 19.4093V24.4401H79.4946V24.0096C79.3483 24.1559 79.0965 24.2868 78.7392 24.4021C78.3819 24.5175 78.0006 24.5752 77.5955 24.5752C76.7851 24.5752 76.1042 24.3473 75.5528 23.8914C75.0013 23.4356 74.7256 22.8279 74.7256 22.0682ZM76.3293 22.0682C76.3293 22.4284 76.4855 22.7027 76.7978 22.8912C77.1101 23.0797 77.4829 23.174 77.9162 23.174C78.2707 23.174 78.5985 23.1036 78.8996 22.9629C79.2006 22.8223 79.399 22.6338 79.4946 22.3974V21.7643C79.399 21.528 79.2006 21.3381 78.8996 21.1946C78.5985 21.0511 78.2707 20.9793 77.9162 20.9793C77.4829 20.9793 77.1101 21.0722 76.7978 21.2579C76.4855 21.4436 76.3293 21.7137 76.3293 22.0682ZM83.2166 24.4401V16.7674H84.947V17.5608C85.0933 17.2738 85.324 17.0403 85.6391 16.8602C85.9542 16.6801 86.2947 16.5901 86.6605 16.5901C87.0544 16.5901 87.3357 16.6379 87.5045 16.7336V18.5146C87.2513 18.3402 86.9109 18.2529 86.4832 18.2529C86.1062 18.2529 85.7756 18.3585 85.4914 18.5695C85.2072 18.7805 85.0257 19.083 84.947 19.4769V24.4401H83.2166ZM89.1332 24.4401V13.2053H90.8635V17.4933C91.083 17.2344 91.3784 17.0192 91.7498 16.8475C92.1212 16.6759 92.5179 16.5901 92.94 16.5901C93.7953 16.5901 94.4608 16.8489 94.9363 17.3667C95.4118 17.8844 95.6495 18.5765 95.6495 19.4431V24.4401H93.9191V19.7385C93.9191 19.249 93.7981 18.8649 93.5562 18.5864C93.3142 18.3078 92.9512 18.1685 92.4673 18.1685C92.0903 18.1685 91.7526 18.2797 91.4544 18.502C91.1562 18.7242 90.9592 19.0211 90.8635 19.3925V24.4401H89.1332ZM97.2275 22.0682C97.2275 21.3479 97.5116 20.7571 98.08 20.2956C98.6484 19.8342 99.3602 19.6035 100.216 19.6035C100.548 19.6035 100.887 19.6513 101.233 19.747C101.579 19.8426 101.833 19.9496 101.997 20.0677V19.4431C101.997 19.0379 101.87 18.7059 101.617 18.4471C101.363 18.1882 101.001 18.0588 100.528 18.0588C99.8526 18.0588 99.4137 18.3374 99.2111 18.8945H97.5482C97.6608 18.2304 97.997 17.6804 98.5569 17.2443C99.1168 16.8081 99.7851 16.5901 100.562 16.5901C101.524 16.5901 102.277 16.8405 102.82 17.3413C103.363 17.8422 103.634 18.5315 103.634 19.4093V24.4401H101.997V24.0096C101.85 24.1559 101.598 24.2868 101.241 24.4021C100.884 24.5175 100.503 24.5752 100.097 24.5752C99.287 24.5752 98.6061 24.3473 98.0547 23.8914C97.5032 23.4356 97.2275 22.8279 97.2275 22.0682ZM98.8312 22.0682C98.8312 22.4284 98.9874 22.7027 99.2997 22.8912C99.612 23.0797 99.9848 23.174 100.418 23.174C100.773 23.174 101.1 23.1036 101.401 22.9629C101.703 22.8223 101.901 22.6338 101.997 22.3974V21.7643C101.901 21.528 101.703 21.3381 101.401 21.1946C101.1 21.0511 100.773 20.9793 100.418 20.9793C99.9848 20.9793 99.612 21.0722 99.2997 21.2579C98.9874 21.4436 98.8312 21.7137 98.8312 22.0682ZM105.617 21.7643V16.7674H107.339V21.4689C107.339 21.9641 107.459 22.3496 107.698 22.6253C107.937 22.9011 108.296 23.0389 108.774 23.0389C109.151 23.0389 109.487 22.9278 109.783 22.7055C110.078 22.4832 110.274 22.1864 110.369 21.815V16.7674H112.1V24.4401H110.369V23.7142C110.15 23.973 109.857 24.1869 109.492 24.3557C109.126 24.5245 108.732 24.6089 108.31 24.6089C107.455 24.6089 106.792 24.3515 106.322 23.8366C105.852 23.3217 105.617 22.6309 105.617 21.7643ZM113.737 22.2286H115.501C115.597 22.5437 115.778 22.7843 116.045 22.9503C116.313 23.1163 116.641 23.1993 117.029 23.1993C117.434 23.1993 117.753 23.1205 117.987 22.9629C118.22 22.8054 118.337 22.5775 118.337 22.2792C118.337 22.071 118.268 21.905 118.13 21.7812C117.992 21.6574 117.763 21.559 117.442 21.4858L115.847 21.106C114.581 20.8021 113.948 20.0987 113.948 18.9957C113.948 18.3036 114.222 17.7296 114.771 17.2738C115.32 16.818 116.013 16.5901 116.852 16.5901C117.735 16.5901 118.436 16.7885 118.953 17.1852C119.471 17.5819 119.797 18.1376 119.932 18.8522H118.236C118.061 18.2895 117.594 18.0082 116.835 18.0082C116.503 18.0082 116.216 18.0841 115.974 18.2361C115.732 18.388 115.611 18.6075 115.611 18.8945C115.611 19.2377 115.875 19.4741 116.404 19.6035L118.025 19.9833C119.342 20.2985 120 21.0244 120 22.1611C120 22.9095 119.721 23.5046 119.164 23.9463C118.607 24.3881 117.89 24.6089 117.012 24.6089C116.112 24.6089 115.369 24.3979 114.784 23.9759C114.198 23.5538 113.849 22.9714 113.737 22.2286Z" fill="#353C45"/>
<path fill-rule="evenodd" clip-rule="evenodd" d="M0 14.3045L26.2284 0V35.766L0 30.9953V14.3045Z" fill="#2E394A"/>
<path opacity="0.105639" fill-rule="evenodd" clip-rule="evenodd" d="M28.6128 2.38441L38.1504 14.3064V30.9972L28.6128 34.5738V2.38441Z" fill="black"/>
</svg>
