<svg width="115" height="28" viewBox="0 0 115 28" fill="none" xmlns="http://www.w3.org/2000/svg">
<path d="M72.5351 1H69.9115C69.54 1 69.1453 1.27372 69.0292 1.61588L63.9678 14.7774C63.8285 15.1195 63.6427 15.0967 63.5266 14.7774L58.8135 1.61588C58.6974 1.27372 58.3027 1 57.9312 1H55.0754C54.704 1 54.5182 1.27372 54.6575 1.59307L61.7157 19.5903C61.855 19.9325 61.855 20.4799 61.7389 20.7993L60.1601 25.3841C60.044 25.7263 60.253 26 60.6012 26H62.9926C63.3641 26 63.7356 25.7263 63.8517 25.3841L65.4537 20.6168C65.5698 20.2746 65.7788 19.7272 65.8948 19.4078L72.9762 1.59307C73.0691 1.27372 72.8833 1 72.5351 1ZM28.7002 1H20.6205C20.249 1 19.9704 1.29653 19.9704 1.63869V25.3613C19.9704 25.7263 20.2723 26 20.6205 26H22.8726C23.2441 26 23.5227 25.7035 23.5227 25.3613V4.87774C23.5227 4.51277 23.8245 4.23905 24.1728 4.23905H28.7235C30.9524 4.23905 32.4847 5.28832 32.4847 7.88869V12.7245C32.4847 16.0091 30.8595 16.9672 27.8876 16.9672H27.609C27.3072 16.9672 26.9589 17.2409 26.8196 17.5602L26.007 19.5675C25.8677 19.9097 26.0534 20.1606 26.4249 20.1834H28.0269C32.7169 20.1834 36.0602 17.948 36.0602 12.7016V7.88869C36.0834 3.32664 32.7401 1 28.7002 1ZM12.1229 1H9.33676C4.60037 1 2 3.32664 2 7.66058V13.3631C2 17.8339 5.4362 20.2062 10.0797 20.2062C12.5176 20.2062 15.7913 20.1834 15.7913 20.1834C16.1627 20.1834 16.5574 19.9097 16.6967 19.5675L17.5094 17.5602C17.6487 17.2181 17.4629 16.9672 17.0914 16.9672H17.045C14.4446 16.9672 12.4247 16.99 10.0565 16.99C7.03822 16.99 5.59873 15.8038 5.59873 13.3859V11.8805H17.4861C17.8576 11.8805 18.1362 11.5839 18.1362 11.2418V6.45164C18.113 3.32664 15.5126 1 12.1229 1ZM14.5839 8.70985H5.57551V7.66058C5.57551 5.10584 6.45778 4.28467 9.3832 4.28467H12.2157C13.7017 4.28467 14.5839 5.10584 14.5839 6.42883V8.70985ZM46.9957 1H42.1432C41.7718 1 41.3771 1.27372 41.2377 1.59307L40.4251 3.62318C40.2858 3.96533 40.4716 4.21624 40.843 4.21624H47.0421C50.014 4.21624 50.8034 5.2427 50.8034 7.11314V7.97993H44.7668C40.8663 7.97993 37.9408 10.1241 37.9408 13.3631V13.9562C37.9408 17.8339 41.5628 20.2062 45.5098 20.2062C47.2743 20.2062 50.8034 20.1834 50.8034 20.1834H53.7288C54.1003 20.1834 54.3789 19.8869 54.3789 19.5447V7.11314C54.3789 3.28102 51.6857 1 46.9957 1ZM50.8034 16.9215C48.7602 16.9215 47.2279 16.9443 45.4634 16.9443C42.7701 16.9443 41.5164 15.7582 41.5164 13.9334V13.3403C41.5164 12.1542 42.3986 11.1962 44.8133 11.1962H50.8034V16.9215Z" fill="#003F5F"/>
</svg>
