<svg width="115" height="28" viewBox="0 0 115 28" fill="none" xmlns="http://www.w3.org/2000/svg">
<path d="M0 19.1532V8H8.98342C9.82499 8 10.4232 8.17237 10.7882 8.50697C11.1532 8.8517 11.3459 9.39923 11.3459 10.1597V12.6438C11.3459 13.3941 11.1634 13.9416 10.7882 14.2864C10.4232 14.6311 9.81485 14.7933 8.98342 14.7933H1.86563V19.1431H0V19.1532ZM8.26353 9.44992H1.87577V13.3434H8.26353C8.7198 13.3434 9.03412 13.2522 9.20649 13.0798C9.37886 12.9074 9.45997 12.6032 9.45997 12.1774V10.6261C9.45997 10.2002 9.37886 9.89605 9.20649 9.72368C9.03412 9.54117 8.7198 9.44992 8.26353 9.44992Z" fill="#223A80"/>
<path d="M16.2026 19.1532V9.99744H25.4192V11.3561H17.9263V13.7084H22.4383V15.0671H17.9263V17.8047H25.5003V19.1431H16.2026V19.1532Z" fill="#223A80"/>
<path d="M31.3 11.8327C31.3406 12.0963 31.371 12.37 31.3913 12.6438C31.4116 12.9176 31.4217 13.1913 31.4217 13.4651V19.1532H29.8298V9.99744H31.1479L37.8703 15.9796C38.0629 16.152 38.2556 16.3345 38.4381 16.5373C38.6206 16.7401 38.793 16.9733 38.9755 17.2369C38.9248 16.9631 38.8944 16.6894 38.864 16.4055C38.8437 16.1216 38.8234 15.8275 38.8234 15.5335V10.0076H40.4153V19.1634H39.229L32.3748 13.1001C32.1315 12.877 31.9287 12.6641 31.7563 12.4613C31.5941 12.2484 31.4318 12.0456 31.3 11.8327Z" fill="#223A80"/>
<path d="M53.8093 11.3561H47.3911V13.7287H53.2618C54.1236 13.7287 54.7016 13.8808 55.0159 14.1748C55.3302 14.4689 55.4823 15.0468 55.4823 15.8884V16.9834C55.4823 17.825 55.3302 18.4029 55.026 18.697C54.7218 18.991 54.1338 19.1431 53.2618 19.1431H47.6953C46.8233 19.1431 46.2352 18.991 45.9209 18.697C45.6066 18.4029 45.4545 17.825 45.4545 16.9834V16.7299L47.0362 16.4055V17.7641H53.9411V15.1888H48.0502C47.1883 15.1888 46.6003 15.0367 46.2859 14.7426C45.9716 14.4486 45.8195 13.8707 45.8195 13.0291V12.1672C45.8195 11.3257 45.9716 10.7579 46.2859 10.4537C46.6003 10.1495 47.1782 9.99744 48.0502 9.99744H53.1401C53.9918 9.99744 54.5799 10.1495 54.9043 10.4436C55.2288 10.7376 55.391 11.2547 55.391 12.005V12.2281L53.8194 12.5627V11.3561H53.8093Z" fill="#223A80"/>
<path d="M60.3593 12.1672C60.3593 11.3257 60.5215 10.7579 60.8358 10.4537C61.1502 10.1495 61.7382 9.99744 62.6102 9.99744H69.221C70.0829 9.99744 70.6811 10.1495 70.9954 10.4537C71.3097 10.7579 71.472 11.3358 71.472 12.1672V16.9834C71.472 17.825 71.3199 18.3928 71.0056 18.697C70.6912 19.0011 70.1032 19.1532 69.2312 19.1532H62.6204C61.7382 19.1532 61.1502 19.0011 60.8358 18.7071C60.5215 18.4131 60.3694 17.8351 60.3694 16.9936V12.1672H60.3593ZM62.083 17.7743H69.728V11.3662H62.083V17.7743Z" fill="#223A80"/>
<path d="M77.3325 19.1532V8H86.3159C87.1575 8 87.7557 8.17237 88.1207 8.50697C88.4857 8.8517 88.6784 9.39923 88.6784 10.1597V12.6438C88.6784 13.3941 88.4959 13.9416 88.1207 14.2864C87.7557 14.6311 87.1473 14.7933 86.3159 14.7933H79.1981V19.1431H77.3325V19.1532ZM85.5859 9.44992H79.1981V13.3434H85.5859C86.0421 13.3434 86.3565 13.2522 86.5288 13.0798C86.7012 12.9074 86.7823 12.6032 86.7823 12.1774V10.6261C86.7823 10.2002 86.7012 9.89605 86.5288 9.72368C86.3666 9.54117 86.0523 9.44992 85.5859 9.44992Z" fill="#223A80"/>
<path d="M90.4629 19.1532L95.7556 9.99744H97.3373L102.762 19.1532H100.886L99.6896 17.0138H93.3627L92.1967 19.1532H90.4629ZM94.0927 15.6957H98.9596L96.5262 11.3358L94.0927 15.6957Z" fill="#223A80"/>
<path d="M108.521 19.1532V15.1583L103.745 9.99744H105.844L109.494 13.9619L112.972 9.99744H115L110.235 15.1583V19.1532H108.521Z" fill="#223A80"/>
</svg>
